<?xml version="1.0" encoding="UTF-8" standalone="no"?>
<svg height="100" width="100" xmlns="http://www.w3.org/2000/svg">
    <path d="M0,0h100v100h-100z" fill="#36397F" />
    <path
        d="M22.6,86.6h16.2V58h5c6.7,0.1 9.8,2.6 11.7,11.6c2.2,8.9 3.9,14.9 5.1,16.9h16.8c-1.4,-2.8 -3.7,-12.3 -5.9,-20.5c-1.8,-6.7 -4.6,-11.5 -9.7,-13.6v-0.3C68,50 74.6,43.6 74.6,34.3c0,-6.7 -2.4,-11.7 -6.7,-15.2c-5.2,-4.1 -12.7,-5.7 -23.5,-5.7c-8.7,0 -16.6,0.6 -21.9,1.5V86.6zM38.8,26.1c1.2,-0.2 3.5,-0.5 7.4,-0.5c7.5,0.1 12.1,3.4 12.1,10.1c0,6.4 -4.8,10.5 -13,10.5h-6.5V26.1z"
        fill="#FFFFFF" />
</svg>