<?xml version="1.0" encoding="UTF-8" standalone="no"?>
<svg height="24" width="24" xmlns="http://www.w3.org/2000/svg">
    <path d="M12,24L24,12 12,0 0,12" fill="#ED0020" />
    <g transform="translate(1.5, 8) scale(0.032, 0.032)">
        <path
            d="M427.247,205.487c9.195,4.867 28.127,9.736 48.139,9.736c48.141,0 73.02,-25.422 73.02,-57.876c0,-23.259 -12.711,-41.107 -43,-54.089c-22.176,-9.195 -29.748,-13.793 -29.748,-22.447c0,-8.113 7.842,-14.333 22.447,-14.333c15.686,0 27.314,4.598 34.346,8.113l8.654,-38.133c-10.006,-4.598 -24.34,-8.384 -43,-8.384c-44.625,0 -69.234,25.151 -69.234,56.793c0,22.447 15.145,40.567 45.705,53.549c18.932,8.113 27.045,12.98 27.045,22.717c0,9.195 -8.113,15.416 -24.342,15.416c-15.686,0 -32.182,-4.869 -42.188,-10.007L427.247,205.487z"
            fill="#FFFFFF" />
        <path
            d="M269.588,30.509v102.498c0,54.36 22.176,82.486 69.504,82.486c47.059,0 71.398,-28.396 71.398,-81.674V30.509h-46.518v107.908c0,27.855 -8.383,39.215 -24.069,39.215c-15.416,0 -23.799,-12.982 -23.799,-39.215V30.509H269.588z"
            fill="#FFFFFF" />
        <path
            d="M118.709,211.978c9.466,1.623 24.611,2.704 43.813,2.704c37.592,0 58.958,-6.49 71.939,-17.308c10.818,-9.195 18.119,-21.906 18.119,-38.404c0,-20.553 -12.711,-37.591 -34.617,-43.542v-0.811c20.284,-8.114 28.397,-23.529 28.397,-38.674c0,-16.227 -8.384,-28.938 -21.365,-36.51c-14.063,-8.113 -30.29,-10.277 -53.277,-10.277c-20.554,0 -41.919,1.893 -53.278,4.057L118.709,211.978zM164.685,64.044c2.975,-0.812 7.032,-1.082 13.522,-1.082c14.604,0 21.906,7.573 21.906,18.661c0,12.17 -9.195,20.284 -26.774,20.284h-8.654V64.044L164.685,64.044zM164.685,135.171h10.277c15.957,0 28.938,6.762 28.938,22.177c0,16.227 -12.981,22.987 -27.585,22.987c-5.139,0 -8.654,0 -11.629,-0.811V135.171L164.685,135.171z"
            fill="#FFFFFF" />
    </g>
</svg>