<?xml version="1.0" encoding="UTF-8" standalone="no"?>
<svg height="315" width="656" xmlns="http://www.w3.org/2000/svg">
    <path d="M542,244l-428,0l-114,-122l114,-122l428,0l114,122z" fill="#ED0020" />
    <path
        d="M427.247,205.487c9.195,4.867 28.127,9.736 48.139,9.736c48.141,0 73.02,-25.422 73.02,-57.876c0,-23.259 -12.711,-41.107 -43,-54.089c-22.176,-9.195 -29.748,-13.793 -29.748,-22.447c0,-8.113 7.842,-14.333 22.447,-14.333c15.686,0 27.314,4.598 34.346,8.113l8.654,-38.133c-10.006,-4.598 -24.34,-8.384 -43,-8.384c-44.625,0 -69.234,25.151 -69.234,56.793c0,22.447 15.145,40.567 45.705,53.549c18.932,8.113 27.045,12.98 27.045,22.717c0,9.195 -8.113,15.416 -24.342,15.416c-15.686,0 -32.182,-4.869 -42.188,-10.007L427.247,205.487z"
        fill="#FFFFFF" />
    <path
        d="M269.588,30.509v102.498c0,54.36 22.176,82.486 69.504,82.486c47.059,0 71.398,-28.396 71.398,-81.674V30.509h-46.518v107.908c0,27.855 -8.383,39.215 -24.069,39.215c-15.416,0 -23.799,-12.982 -23.799,-39.215V30.509H269.588z"
        fill="#FFFFFF" />
    <path
        d="M118.709,211.978c9.466,1.623 24.611,2.704 43.813,2.704c37.592,0 58.958,-6.49 71.939,-17.308c10.818,-9.195 18.119,-21.906 18.119,-38.404c0,-20.553 -12.711,-37.591 -34.617,-43.542v-0.811c20.284,-8.114 28.397,-23.529 28.397,-38.674c0,-16.227 -8.384,-28.938 -21.365,-36.51c-14.063,-8.113 -30.29,-10.277 -53.277,-10.277c-20.554,0 -41.919,1.893 -53.278,4.057L118.709,211.978zM164.685,64.044c2.975,-0.812 7.032,-1.082 13.522,-1.082c14.604,0 21.906,7.573 21.906,18.661c0,12.17 -9.195,20.284 -26.774,20.284h-8.654V64.044L164.685,64.044zM164.685,135.171h10.277c15.957,0 28.938,6.762 28.938,22.177c0,16.227 -12.981,22.987 -27.585,22.987c-5.139,0 -8.654,0 -11.629,-0.811V135.171L164.685,135.171z"
        fill="#FFFFFF" />
    <path
        d="M153.286,265.411c-3.74-1.615-7.905-2.55-12.07-2.55c-4.08,0-9.35,1.784-9.35,8.244      c0,10.285,26.01,5.95,26.01,25.84c0,13.005-10.285,17.935-22.27,17.935c-6.46,0-9.35-0.85-15.215-2.295l1.105-10.71      c4.08,2.21,8.755,3.655,13.43,3.655c4.505,0,10.54-2.295,10.54-7.649c0-11.306-26.009-6.63-26.009-26.265      c0-13.261,10.285-18.105,20.74-18.105c5.1,0,9.86,0.681,14.195,2.125L153.286,265.411z"
        fill="#ED0020" />
    <path
        d="M196.041,279.52c-2.04-0.935-4.25-1.615-7.735-1.615c-7.055,0-11.56,5.61-11.56,13.855      c0,8.075,3.825,14.279,11.815,14.279c3.23,0,6.8-1.189,8.755-2.04l0.51,9.436c-3.315,1.02-6.715,1.444-11.39,1.444      c-14.365,0-21.59-9.774-21.59-23.119c0-12.665,7.48-22.695,21.165-22.695c4.59,0,7.905,0.511,11.05,1.445L196.041,279.52z"
        fill="#ED0020" />
    <path
        d="M205.39,250.111h11.39v25.925h0.17c2.89-4.25,7.82-6.971,13.77-6.971c10.37,0,14.875,7.311,14.875,17.17      v27.625h-11.39v-23.375c0-5.354-0.085-12.58-7.395-12.58c-8.245,0-10.03,8.926-10.03,14.535v21.42h-11.39V250.111z"
        fill="#ED0020" />
    <path
        d="M257.324,270.085h10.795v5.95h0.17c3.57-5.016,8.415-6.971,14.365-6.971      c10.37,0,14.875,7.311,14.875,17.17v27.625h-11.39v-23.375c0-5.354-0.085-12.58-7.395-12.58c-8.245,0-10.03,8.926-10.03,14.535      v21.42h-11.39V270.085z"
        fill="#ED0020" />
    <path
        d="M344.363,311.395c-4.165,2.295-8.925,3.484-15.045,3.484c-14.45,0-22.865-8.329-22.865-22.694      c0-12.665,6.715-23.12,20.315-23.12c16.234,0,20.824,11.136,20.824,26.436h-30.26c0.51,7.055,5.44,11.05,12.495,11.05      c5.524,0,10.285-2.04,14.535-4.42V311.395z M336.714,287.68c-0.341-5.525-2.891-10.285-9.266-10.285s-9.605,4.42-10.115,10.285      H336.714z"
        fill="#ED0020" />
    <path d="M356.774,250.111h11.389v63.749h-11.389V250.111z" fill="#ED0020" />
    <path d="M380.403,250.111h11.391v63.749h-11.391V250.111z" fill="#ED0020" />
    <path
        d="M404.799,254.531h20.74c7.649,0,19.124,2.21,19.124,15.215c0,7.055-4.76,11.984-11.814,13.26v0.17      c8.075,0.765,13.6,6.205,13.6,13.515c0,14.96-13.43,17.17-20.909,17.17h-20.74V254.531z M416.699,278.5h4.845      c5.015,0,11.22-1.105,11.22-7.226c0-6.885-6.035-7.395-11.475-7.395h-4.59V278.5z M416.699,304.51h5.609      c5.525,0,12.24-1.36,12.24-8.245c0-7.735-6.29-8.925-12.24-8.925h-5.609V304.51z"
        fill="#ED0020" />
    <path
        d="M495.917,313.86h-10.795v-5.95h-0.17c-3.484,4.25-8.415,6.97-14.364,6.97      c-10.37,0-14.875-7.31-14.875-17.169v-27.625h11.39v23.375c0,5.354,0.085,12.579,7.395,12.579c8.245,0,10.03-8.925,10.03-14.534      v-21.42h11.39V313.86z"
        fill="#ED0020" />
    <path
        d="M533.657,279.265c-3.485-1.189-6.035-1.87-10.2-1.87c-3.06,0-6.715,1.105-6.715,4.845      c0,6.971,19.805,2.551,19.805,18.36c0,10.2-9.095,14.279-18.359,14.279c-4.335,0-8.755-0.765-12.92-1.869l0.68-9.351      c3.57,1.785,7.31,2.891,11.22,2.891c2.89,0,7.48-1.105,7.48-5.355c0-8.585-19.806-2.72-19.806-18.529      c0-9.436,8.245-13.601,17.17-13.601c5.355,0,8.84,0.851,12.41,1.615L533.657,279.265z"
        fill="#ED0020" />
</svg>