<?xml version="1.0" encoding="UTF-8" standalone="no"?>
<svg height="138" width="373" xmlns="http://www.w3.org/2000/svg">
    <path
        d="m0,2.281c21.78,0.11 43.56,-0.25 65.32,0.26c11.11,0.1 23.12,2.69 30.7,11.46c11.15,11.34 11.57,31.01 0.9,42.8c-2.16,3.6 -9.13,6.64 -10.14,8.31c12.87,3.5 23.46,14.92 24.27,28.5c1.75,17.45 -9.47,36.36 -27.18,40.23c-12.18,2.5 -24.73,1.62 -37.1,2.02c-15.59,0.03 -31.18,0 -46.77,0.01l0,-133.59zM26.8,24.521l0,30.89c12.9,-0.19 25.87,0.52 38.72,-0.71c7.32,-0.9 13.57,-7.41 13.09,-14.96c0.47,-7.04 -4.81,-13.69 -11.87,-14.51c-13.25,-1.2 -26.63,-0.55 -39.93,-0.71l-0.01,0zM26.8,77.641l0,35.73c14.03,-0.17 28.08,0.46 42.06,-0.63c8.07,-0.65 14.94,-7.78 14.62,-16c0.86,-8.42 -5.32,-16.63 -13.76,-17.83c-14.19,-2.05 -28.62,-1 -42.91,-1.27l-0.01,0zM134.81,2.281l26.8,0c0.1,28.37 -0.2,56.74 0.2,85.1c-0.19,8.36 1.74,17.64 9,22.75c8.5,6.04 20.11,6.04 29.77,3.13c7.63,-2.63 12.56,-10.42 12.62,-18.36c1.17,-16.9 0.48,-33.84 0.67,-50.75l0,-41.87l26.8,0c-0.09,27.53 0.19,55.06 -0.17,82.59c-0.48,13.53 -0.92,28.7 -10.76,39.18c-10.47,11.47 -26.74,14.46 -41.6,14.1c-13.4,0 -27.83,-1.78 -38.33,-10.97c-8.67,-7.05 -13.18,-17.96 -13.87,-28.92c-1.82,-18.98 -0.9,-38.07 -1.13,-57.1l0,-38.88zM264.85,92.401l26.07,-2.54c1.53,10.3 7.3,21.1 18.01,24.05c9.7,2.56 21.05,2.42 29.64,-3.3c7.15,-4.65 10.42,-15.92 3.9,-22.44c-7.37,-6.2 -17.44,-7.07 -26.36,-9.8c-14.26,-3.66 -30.39,-7.45 -39.6,-20.03c-11.13,-14.24 -8.34,-36.83 5.9,-47.98c13.26,-10.47 31.25,-11.4 47.4,-9.67c13.98,1.35 28.22,8.4 34.66,21.4c2.77,5.54 4.83,12.7 4.16,18.39l-26.45,1.17c-0.95,-8.11 -5.9,-16.53 -14.46,-18.2c-9.69,-2 -21.09,-1.9 -29.2,4.52c-6.1,5.15 -2.93,15.31 4.17,17.76c17.58,8.01 38.2,8.17 54.56,19.09c10.99,7.27 16.24,20.72 15.51,33.57c-0.36,15.91 -11.3,30.9 -26.47,35.85c-14.46,4.85 -30.32,5.1 -45.19,2.07c-14.58,-2.87 -27.31,-13.4 -32.33,-27.46a66.7,66.7 0,0 1,-3.93 -16.44l0.01,-0.01z"
        fill="#fff" />
</svg>