<?xml version="1.0" encoding="UTF-8" standalone="no"?><svg xmlns:android="http://schemas.android.com/apk/res/android" android:tint="?attr/colorOnSurface" height="24" width="16" xmlns="http://www.w3.org/2000/svg">
    <path d="M 9 4.01 l 0.75 -1.51 h 2.5 C 12.66 2.5 13 2.16 13 1.75 v 0 C 13 1.34 12.66 1 12.25 1 h -8.5 C 3.34 1 3 1.34 3 1.75 v 0 C 3 2.16 3.34 2.5 3.75 2.5 h 4 L 7 4 l 0.03 0.01 C 3.38 4.1 0 4.78 0 8 v 9.5 C 0 19.43 1.57 21 3.5 21 l -0.49 0.49 C 2.45 22.05 2.85 23 3.63 23 h 0 c 0.23 0 0.46 -0.09 0.62 -0.26 L 6 21 h 4 l 1.74 1.74 c 0.17 0.17 0.39 0.26 0.62 0.26 h 0 c 0.79 0 1.18 -0.95 0.63 -1.51 L 12.5 21 c 1.93 0 3.5 -1.57 3.5 -3.5 V 8 C 16 4.77 12.95 4.1 9 4.01 z M 8 18 c -0.83 0 -1.5 -0.67 -1.5 -1.5 S 7.17 15 8 15 s 1.5 0.67 1.5 1.5 S 8.83 18 8 18 z M 14 12 H 2 V 9 h 12 V 12 z" fill=""/>
</svg>