<?xml version="1.0" encoding="UTF-8" standalone="no"?><svg xmlns:android="http://schemas.android.com/apk/res/android" android:autoMirrored="true" height="20" width="20" xmlns="http://www.w3.org/2000/svg">
    <path d="M 10 0 C 4.48 0 0 4.48 0 10 c 0 5.52 4.48 10 10 10 s 10 -4.48 10 -10 C 20 4.48 15.52 0 10 0 z M 9.85 16 c -0.7 0 -1.26 -0.56 -1.26 -1.26 c 0 -0.71 0.56 -1.25 1.26 -1.25 c 0.71 0 1.25 0.54 1.25 1.25 C 11.1 15.43 10.56 16 9.85 16 z M 12.86 8.6 c -0.76 1.11 -1.48 1.46 -1.87 2.17 c -0.09 0.17 -0.15 0.31 -0.19 0.59 c -0.06 0.46 -0.43 0.82 -0.9 0.82 h -0.04 c -0.53 0 -0.95 -0.45 -0.9 -0.98 c 0.03 -0.33 0.11 -0.68 0.3 -1 c 0.49 -0.87 1.42 -1.39 1.96 -2.16 c 0.57 -0.81 0.25 -2.33 -1.37 -2.33 c -0.74 0 -1.21 0.39 -1.51 0.85 C 8.12 6.9 7.66 7.02 7.27 6.86 c -0.5 -0.21 -0.72 -0.83 -0.41 -1.29 C 7.47 4.66 8.49 4 9.83 4 c 1.48 0 2.49 0.67 3.01 1.52 C 13.28 6.24 13.54 7.59 12.86 8.6 z" fill=""/>
</svg>