<?xml version="1.0" encoding="UTF-8" standalone="no"?><svg xmlns:android="http://schemas.android.com/apk/res/android" android:tint="?attr/colorOnSurface" height="24" width="20" xmlns="http://www.w3.org/2000/svg">
    <path d="M 18 21 c -1.19 0 -2.38 -0.35 -3.47 -0.98 c -0.33 -0.19 -0.73 -0.19 -1.07 0 c -2.17 1.26 -4.76 1.26 -6.93 0 c -0.33 -0.19 -0.73 -0.19 -1.07 0 C 4.38 20.65 3.19 21 2 21 H 1 c -0.55 0 -1 0.45 -1 1 v 0 c 0 0.55 0.45 1 1 1 h 1 c 1.38 0 2.74 -0.35 4 -0.99 c 2.52 1.29 5.48 1.29 8 0 c 1.26 0.65 2.62 0.99 4 0.99 h 1 c 0.55 0 1 -0.45 1 -1 v 0 c 0 -0.55 -0.45 -1 -1 -1 H 18 z M 1.95 19 H 2 c 1.27 0 2.42 -0.55 3.33 -1.33 c 0.39 -0.34 0.95 -0.34 1.34 0 C 7.58 18.45 8.73 19 10 19 s 2.42 -0.55 3.33 -1.33 c 0.39 -0.34 0.95 -0.34 1.34 0 C 15.58 18.45 16.73 19 18 19 h 0.05 l 1.9 -6.68 c 0.11 -0.37 0.04 -1.06 -0.66 -1.28 L 18 10.62 V 6 c 0 -1.1 -0.9 -2 -2 -2 h -3 V 2 c 0 -0.55 -0.45 -1 -1 -1 h -4 C 7.45 1 7 1.45 7 2 v 2 H 4 C 2.9 4 2 4.9 2 6 v 4.62 l -1.29 0.42 c -0.63 0.19 -0.81 0.84 -0.66 1.28 L 1.95 19 z M 4 6 h 12 v 3.97 L 10.62 8.2 c -0.41 -0.13 -0.84 -0.13 -1.25 0 L 4 9.97 V 6 z" fill=""/>
</svg>