<?xml version="1.0" encoding="UTF-8" standalone="no"?><svg xmlns:android="http://schemas.android.com/apk/res/android" height="21" width="21" xmlns="http://www.w3.org/2000/svg">
    <g transform="translate(-1.5, -1)">
        <path d="M5,11v5c0,0.55 0.45,1 1,1s1,-0.45 1,-1v-5c0,-0.55 -0.45,-1 -1,-1S5,10.45 5,11z" fill=""/>
        <path d="M11,11v5c0,0.55 0.45,1 1,1s1,-0.45 1,-1v-5c0,-0.55 -0.45,-1 -1,-1S11,10.45 11,11z" fill=""/>
        <path d="M21,19H3c-0.55,0 -1,0.45 -1,1s0.45,1 1,1h18c0.55,0 1,-0.45 1,-1S21.55,19 21,19z" fill=""/>
        <path d="M17,11v5c0,0.55 0.45,1 1,1s1,-0.45 1,-1v-5c0,-0.55 -0.45,-1 -1,-1S17,10.45 17,11z" fill=""/>
        <path d="M3.24,8h17.53c1.31,0 1.71,-1.76 0.55,-2.34l-8.42,-4.21c-0.56,-0.28 -1.23,-0.28 -1.79,0L2.68,5.66C1.52,6.24 1.94,8 3.24,8z" fill=""/>

    </g>
</svg>