<?xml version="1.0" encoding="UTF-8" standalone="no"?><svg xmlns:android="http://schemas.android.com/apk/res/android" android:tint="?attr/colorOnSurface" height="56.9" width="42.65" xmlns="http://www.w3.org/2000/svg">
    <path d="m34.3769,45.07a9.85,9.85 0,0 1,-6.3 2.32l-13.52,0a9.85,9.85 0,0 1,-6.3 -2.28l-7.91,-6.59c0.72,5.91 3.2,12.31 9.14,13.62l0,4.73l23.67,0l0,-4.78c5.94,-1.3 8.41,-7.7 9.14,-13.62l-7.92,6.6z" fill=""/>
    <path d="m11.2869,41.39a5.14,5.14 0,0 0,3.27 1.18l13.52,0a5.14,5.14 0,0 0,3.27 -1.18l11.28,-9.34c0.37,-27.65 -5.92,-32.05 -21.3,-32.05s-21.7,4.39 -21.31,32.05l11.27,9.34zM13.0369,37.25l-3.55,-6.51l5.32,0l3.55,6.51l-5.32,0zM29.6269,37.29l-5.35,0l3.55,-6.51l5.33,0l-3.53,6.51zM21.3169,4.73c11.78,0 15.38,4.24 15.38,9.47s-2.91,11.84 -15.38,11.84s-15.38,-6.65 -15.38,-11.84s3.6,-9.47 15.38,-9.47z" fill=""/>
</svg>