<?xml version="1.0" encoding="UTF-8" standalone="no"?><svg xmlns:android="http://schemas.android.com/apk/res/android" android:tint="?attr/colorOnSurface" height="24" width="20" xmlns="http://www.w3.org/2000/svg">
    <path d="M 15.8 2.8 C 14 2.09 11.86 2 10 2 S 6 2.09 4.2 2.8 C 1.53 3.84 0 6.05 0 8.86 V 20 c 0 1.1 0.9 2 2 2 h 16 c 1.1 0 2 -0.9 2 -2 V 8.86 C 20 6.05 18.47 3.84 15.8 2.8 z M 16 15.5 c 0 1.5 -1.11 2.73 -2.55 2.95 l 0.26 0.26 c 0.47 0.47 0.14 1.28 -0.53 1.28 h 0 c -0.2 0 -0.39 -0.08 -0.53 -0.22 l -1.28 -1.28 h -2.75 l -1.28 1.28 C 7.2 19.92 7.01 20 6.81 20 h 0 c -0.67 0 -1 -0.81 -0.53 -1.28 l 0.26 -0.26 C 5.11 18.23 4 17 4 15.5 V 9 c 0 -2.62 3 -3 6 -3 c 3.32 0 6 0.38 6 3 V 15.5 z" fill=""/>
    <path d="M 6.5 15.5 m -1 0 a 1 1 0 1 1 2 0 a 1 1 0 1 1 -2 0" fill=""/>
    <path d="M 5.5 9 h 9 v 4 h -9 z" fill=""/>
    <path d="M 13.5 15.5 m -1 0 a 1 1 0 1 1 2 0 a 1 1 0 1 1 -2 0" fill=""/>
</svg>