<?xml version="1.0" encoding="UTF-8" standalone="no"?><svg xmlns:android="http://schemas.android.com/apk/res/android" height="22" width="22" xmlns="http://www.w3.org/2000/svg">
    <path d="M10.9,21.62C4.88,21.62 0,16.77 0,10.81S4.88,0 10.9,0s10.9,4.85 10.9,10.81 -4.89,10.81 -10.9,10.81zM10.9,21.62" fill="#006F35"/>
    <path d="M8.14,6.02c0,-0.94 0.87,-1.74 2.39,-1.74 2.68,0 4.97,1.43 6.48,3.05L17.01,4.49c-1.75,-1.35 -3.96,-2.15 -6.43,-2.15 -2.96,0 -6.25,1.8 -6.25,5.14 0,6.37 9.76,4.09 9.76,7.78 0,0.98 -1.3,1.9 -2.92,1.9 -2.64,0 -5.26,-1.59 -6.7,-3.64v3.4a11.1,11.1 0,0 0,6.7 2.42c4.32,0 6.88,-3.05 6.88,-5.67 0,-6.49 -9.92,-3.71 -9.92,-7.66zM8.14,6.02" fill="#FFFFFF"/>
</svg>