<?xml version="1.0" encoding="UTF-8" standalone="no"?>
<svg height="500" width="500" xmlns="http://www.w3.org/2000/svg">
    <path d="M500,250a250,250 0,1 1,-500 0,250 250,0 0,1 500,0z" fill="#0080c0" />
    <path
        d="M64,416 C 63,416 118,392.6 245,431.6 C 298,447.5 392.6,450 405,445 L428.7,424C381.7,434.2,325.5,430,276.7,420.8C229.1,410,175.6,389.6,145.4,392.1L173.9,258H342.1L353.9,200L186.1,200L203.2,115.1H375.7L386.4,57.2L145,57.2L74.3,390.7C52.5,394.3,50,400,50,400L64,416"
        fill="#FFFFFF" />
</svg>