<?xml version="1.0" encoding="utf-8" standalone="no"?>
<svg height="96" width="96" xmlns="http://www.w3.org/2000/svg">
    <path d="M0 0h96v96H0z" fill="#191364" />
    <path
        d="M 91 48 C 91 51 76 69.5 48 69.5 C 20 69.5 5 51 5 48 C 5 45 20 26.5 48 26.5 C 76 26.5 91 45 91 48 Z "
        fill="#FFF200" />
    <path
        d="M 42 48 C 42 41 44 34.7 47.25 28 C 47.75 27 48.25 27 48.75 28 C 51 34.7 54 41 54 48 C 54 55 51 61.3 48.75 68 C 48.25 69 47.75 69 47.25 68 C 44.5 61.3 42 55 42 48 Z"
        fill="#000000" />
</svg>