<?xml version="1.0" encoding="utf-8" standalone="no"?>
<svg height="43" width="86" xmlns="http://www.w3.org/2000/svg">
    <path
        d="M 86 21.5 C 86 24.5 71 43 43 43 C 15 43 0 24.5 0 21.5 C 0 18.5 15 0 43 0 C 71 0 86 18.5 86 21.5 Z "
        fill="#FFF200" />
    <path
        d="M 37 21.5 C 37 14.5 39 8.2 42.25 1.5 C 42.75 0.5 43.25 0.5 43.75 1.5 C 46 8.2 49 14.5 49 21.5 C 49 28.5 46 34.8 43.75 41.5 C 43.25 42.5 42.75 42.5 42.25 41.5 C 39.5 34.8 37 28.5 37 21.5 Z"
        fill="#000000" />
</svg>