<?xml version="1.0" encoding="utf-8" standalone="no"?>
<svg height="22.5" width="22.5" xmlns="http://www.w3.org/2000/svg">
    <path d="M0 0l22.5 0 0 22.5 -22.5 0zm0 0" fill="#a2238e" />
    <path
        d="M7.12 12.25l3.25 0 0 -3.25 -3.25 0zm4.24 0l3.25 0 0 -3.25 -3.25 0zm4.24 0l3.27 0 0 -3.25 -3.27 0zm-6.92 4.52c0 1.01 -0.82 1.82 -1.84 1.82 -1.01 0 -1.84 -0.82 -1.84 -1.82 0 -1.03 0.84 -1.84 1.84 -1.84 1.03 0 1.84 0.82 1.84 1.84zm8.76 0c0 1.01 -0.82 1.82 -1.84 1.82 -1.01 0 -1.83 -0.82 -1.83 -1.82 0 -1.03 0.82 -1.84 1.83 -1.84 1.02 0 1.84 0.82 1.84 1.84zm2.41 -1.27c0 0.42 -0.15 0.57 -0.57 0.57l-1.44 0c-0.3 -0.95 -1.18 -1.65 -2.24 -1.65 -1.05 0 -1.92 0.7 -2.23 1.65l-4.3 0c-0.3 -0.95 -1.2 -1.65 -2.24 -1.65 -1.04 0 -1.94 0.7 -2.22 1.65l-1.54 0C2.78 16.07 2.65 15.92 2.65 15.63l0 -1.56C2.65 13.98 3.45 8.56 3.45 8.65 3.49 8.29 3.6 8.14 4.64 8.14l14.64 0c0.42 0 0.57 0.13 0.57 0.57zm-13.72 -2.27l0 -4.23 -1.56 0c-0.11 0 -0.25 0 -0.29 0.27l-0.57 3.97 2.41 0"
        fill="#ffffff" />
</svg>