<?xml version="1.0" encoding="UTF-8" standalone="no"?>
<svg height="189" width="308" xmlns="http://www.w3.org/2000/svg">
    <path
        d="m204.601,150.627c-14.333,0 -25.629,-4.554 -38.71,-9.827c-14.918,-6.003 -31.822,-12.821 -54.285,-12.821c-33.221,0 -60.12,14.575 -71.496,21.853l18.14,34.551c3.051,-2.189 25.564,-17.588 53.356,-17.588c14.939,0 26.453,4.643 39.779,10.011c14.696,5.923 31.359,12.637 53.216,12.637c27.813,0 47.665,-9.485 59.018,-16.943l-16.422,-36.118c-1.014,0.94 -15.768,14.245 -42.596,14.245z"
        fill="#FFFFFF" />
    <path
        d="M0,6.273l55.465,0l0,15.922l-33.371,0l0,18.457l31.944,0l0,15.923l-31.944,0l0,33.894l-22.089,0l0,-84.196z"
        fill="#FFFFFF" />
    <path
        d="m100.117,90.474c-0.116,-3.375 -0.476,-6.631 -0.476,-9.891l-0.237,0c-4.871,7.839 -10.81,11.338 -19.597,11.338c-12.231,0 -23.157,-6.152 -23.157,-19.787c0,-19.18 20.542,-21.473 31.944,-21.473c3.444,0 7.244,0.363 9.98,0.844c-0.116,-8.569 -6.415,-10.857 -14.134,-10.857c-6.884,0 -13.773,1.324 -19.713,4.705l-0.36,-14.721c7.604,-3.132 15.56,-4.463 24.707,-4.463c15.792,0 29.455,6.875 29.455,26.06l0,23.407c0,4.944 0.239,9.893 1.189,14.835l-19.602,0l0,0.003l0.001,0zM67.222,2.534l17.103,0l0,17.37l-17.103,0l0,-17.37zM85.39,77.449c8.079,0 13.184,-7.481 13.184,-14.842c-2.731,-0.121 -5.823,-0.365 -9.023,-0.365c-7.25,0 -12.945,2.296 -12.945,8.327c-0.007,4.347 3.798,6.88 8.784,6.88zM94.301,2.534l17.102,0l0,17.37l-17.102,0l0,-17.37z"
        fill="#FFFFFF" />
    <path
        d="m127.598,0l21.378,0l0,36.912l0.237,0c4.634,-6.517 11.4,-10.739 20.668,-10.739c16.867,0 23.629,12.063 23.629,25.095l0,39.201l-21.374,0l0,-30.395c0,-11.824 -4.037,-15.802 -9.855,-15.802c-8.794,0 -13.299,6.15 -13.299,19.663l0,26.538l-21.378,0l0,-90.473l-0.006,0z"
        fill="#FFFFFF" />
    <path
        d="m245.056,45c-2.369,-0.722 -4.748,-0.722 -7.245,-0.722c-9.979,0 -15.555,7.358 -15.555,19.663l0,26.541l-21.379,0l0,-62.857l19.479,0l0,11.58l0.237,0c3.682,-7.962 9.026,-13.032 18.294,-13.032c2.497,0 5.112,0.365 7.239,0.725l-1.07,18.102z"
        fill="#FFFFFF" />
    <path
        d="m265.533,65.381c1.186,8.689 7.714,12.068 18.171,12.068c5.813,0 12.466,-1.332 18.882,-4.828l0,15.318c-6.89,2.774 -14.722,3.982 -22.687,3.982c-20.421,0 -33.275,-12.184 -33.275,-32.935c0,-20.751 11.191,-32.814 30.433,-32.814c22.923,0 31.233,16.526 31.233,35.226l0,3.978l-42.757,0l0,0.005zM289.044,53.076c0,-7.237 -3.331,-13.148 -11.878,-13.148c-7.719,0 -11.405,5.911 -11.874,13.148l23.752,0z"
        fill="#FFFFFF" />
</svg>