<?xml version="1.0" encoding="UTF-8" standalone="no"?>
<svg height="15" width="19.15" xmlns="http://www.w3.org/2000/svg">
    <path
        d="M4.85,9.69h2.6L7.45,6.92h-2.6zM8.41,9.69h2.63L11.04,6.92L8.42,6.92zM8.41,3.58L6.27,1.42 4.11,3.49l2.16,2.14zM12,9.69h2.61L14.61,6.92L12,6.92zM15.59,12.43h2.6L18.19,6.92h-2.6zM19.15,13.33a0.7,0.7 0,0 1,-0.74 0.74h-0.9c-0.12,0.52 -0.6,0.9 -1.14,0.9a1.2,1.2 0,0 1,-1.16 -0.9c-0.14,0.52 -0.54,0.9 -1.1,0.9a1.2,1.2 0,0 1,-1.18 -1.2c0,-0.16 0.02,-0.3 0.08,-0.44L5.93,13.33a1.1,1.1 0,0 1,0.1 0.44,1.2 1.2,0 0,1 -2.36,0.3c-0.1,0.52 -0.58,0.9 -1.12,0.9 -0.56,0 -1.04,-0.38 -1.16,-0.9L0.45,14.07c-0.3,0 -0.48,-0.3 -0.44,-0.6l0.74,-6.55c0.1,-0.9 0.42,-1.2 1.34,-1.2h2.68L2.68,3.49 6.27,0l3.56,3.59 -2.08,2.14L17.8,5.73c0.74,0 1.34,0.46 1.34,1.2zM3.87,13.18L3.87,6.92L1.92,6.92l-0.6,5.51h2.55"
        fill="#fff" />
</svg>