<?xml version="1.0" encoding="UTF-8" standalone="no"?>
<svg height="14.5" width="22" xmlns="http://www.w3.org/2000/svg">
    <path
        d="M19.78 9.53c0-0.35 0-0.7-0.12-1.04L19.5 7.51l-0.12-0.75h-1.4v3.73h1.84c0-0.3-0.01-0.62-0.04-0.96m-2.6-2.77h-3.2v5.57h3.2V6.76zm-4 0h-3.2v3.73h3.2V6.76zm-4 0h-3.2v3.73h3.2V6.76zm-4 0h-3.2v3.73h3.2V6.76zM0 14.46v-0.77h22.46v0.77H0zm20.62-3.97a10.76 10.76 0 0 1-0.2 1.72c-0.09 0.33-0.15 0.66-0.21 0.98H0v-2.7h1.21V6.76H0V5.48h9.18l0.54-0.53h4.65l2.6-2.13-2.9-2.2h-0.7c-0.23 0-0.33-0.1-0.33-0.32 0-0.2 0.1-0.3 0.32-0.3h0.92l3.67 2.82-2.63 2.13h1.9c1 0 1.8 0.2 2.36 0.62 0.24 0.14 0.4 0.34 0.5 0.6a21.77 21.77 0 0 1 0.46 3c0.06 0.49 0.08 0.92 0.08 1.32"
        fill="#000000" />
</svg>