<?xml version="1.0" encoding="UTF-8" standalone="no"?>
<svg height="265" width="738" xmlns="http://www.w3.org/2000/svg">
    <path d="M161.919,40.303l0,-40.303l-161.919,0l0,40.303l56.316,0l0,220.964l49.279,0l0,-220.964"
        fill="#FFFFFF" />
    <path
        d="m280.751,67.662c-3.528,-1.553 -10.959,-2.344 -14.479,-2.344c-20.33,0 -34.414,8.609 -46.54,28.939l-3.519,-25.42l-42.241,0l0,192.429l46.541,0l0,-105.207c0,-24.263 6.264,-49.279 34.027,-49.279c4.299,0 8.598,0.781 12.908,1.957"
        fill="#FFFFFF" />
    <path
        d="m445.238,261.267c-1.562,-11.713 -3.509,-23.849 -3.509,-35.599l0,-105.586c0,-33.642 -23.096,-54.764 -68.056,-54.764c-20.358,0 -44.207,2.344 -62.981,10.951l7.827,32.467c13.298,-7.028 31.672,-10.161 45.764,-10.161c20.339,0 32.449,8.985 32.449,28.939l0,21.506c-7.037,-1.176 -16.041,-3.133 -29.71,-3.133c-43.803,0 -73.923,21.506 -73.923,61.405c0,35.572 19.154,57.483 56.706,57.483c21.498,0 37.538,-9.371 48.508,-26.192l3.508,22.682m-5.089,-57.893c0,17.225 -14.866,30.124 -32.449,30.124c-17.216,0 -24.253,-12.127 -24.253,-28.562c0,-16.822 9.774,-32.054 31.677,-32.054c11.335,0 19.952,1.58 25.025,3.519l0,26.973z"
        fill="#FFFFFF" fill-rule="evenodd" />
    <path
        d="m738.098,261.267l0,-135.709c0,-33.643 -16.408,-60.24 -52.402,-60.24c-25.834,0 -42.627,12.908 -49.682,29.325c-6.248,-13.67 -18.392,-29.325 -48.875,-29.325c-22.691,0 -40.698,11.714 -48.507,29.325l-3.528,-25.806l-41.065,0l0,192.429l46.56,0l0,-120.852c0,-19.164 7.422,-41.838 27.744,-41.838c17.621,0 24.64,12.118 24.64,30.491l0,132.2l46.173,0l0,-121.617c0,-19.182 7.037,-41.075 27.745,-41.075c17.602,0 24.638,13.67 24.638,30.491l0,132.2"
        fill="#FFFFFF" />
</svg>