<?xml version="1.0" encoding="utf-8" standalone="no"?>
<svg height="48" width="48" xmlns="http://www.w3.org/2000/svg">
    <path d="M 24 0 A 1 1 0 0 0 24 48 A 1 1 0 0 0 24 0 Z" fill="#FF5100" />
    <path
        d="M 35 8 H 13 A 2 2 0 0 0 11 10 V 35.4085 H 37 V 10 A 2 2 0 0 0 35 8 Z M 16 10 H 32 V 12 H 16 Z M 15.5 32.102 A 2 2 0 1 1 17.5 30.102 A 2 2 0 0 1 15.5 32.1016 Z M 32.5 32.1333 A 2 2 0 1 1 34.4995 30.1333 A 2 2 0 0 1 32.5 32.1329 Z M 35 23 A 2 2 0 0 1 33 25 H 15 A 2 2 0 0 1 13 23 V 17 A 2 2 0 0 1 15 15 H 33 A 2 2 0 0 1 35 17 Z M 13 39 A 1 1 0 0 0 14 40 H 17 A 1 1 0 0 0 18 39 V 37 H 13 Z M 30 39 A 1 1 0 0 0 31 40 H 34 A 1 1 0 0 0 35 39 V 37 H 30 "
        fill="#FFFFFF" />
</svg>