<?xml version="1.0" encoding="UTF-8" standalone="no"?>
<svg height="17.25" width="46.5" xmlns="http://www.w3.org/2000/svg">
    <path
        d="M39.57 6.15H6.84C5.8 6.15 4.96 7 4.96 8.05v7.11c0 1.04 0.84 1.89 1.88 1.89h32.73c1.04 0 1.89-0.85 1.89-1.89V8.04c0-1.04-0.85-1.89-1.9-1.89m-0.27 2.33c0.58 0 1.05 0.46 1.05 1.04v2.24c0 0.58-0.47 1.05-1.05 1.05h-5.55c-0.58 0-1.05-0.47-1.05-1.05V9.52c0-0.58 0.47-1.04 1.05-1.04h5.55zm-8.9 0c0.58 0 1.05 0.46 1.05 1.04v2.24c0 0.58-0.47 1.05-1.05 1.05h-5.55c-0.58 0-1.05-0.47-1.05-1.05V9.52c0-0.58 0.47-1.04 1.05-1.04h5.55zm-8.72 0c0.58 0 1.05 0.46 1.05 1.04v2.24c0 0.58-0.47 1.05-1.05 1.05h-5.55c-0.58 0-1.05-0.47-1.05-1.05V9.52c0-0.58 0.47-1.04 1.05-1.04h5.55zm-8.93 0c0.58 0 1.05 0.46 1.05 1.04v2.24c0 0.58-0.47 1.05-1.05 1.05H7.2c-0.58 0-1.05-0.47-1.05-1.05V9.52c0-0.58 0.47-1.04 1.05-1.04h5.55zM33 2.2a2.2 2.2 0 1 0-4.4 0 2.2 2.2 0 0 0 4.4 0"
        fill="#fff" />
    <path
        d="M37.17 2.2a2.2 2.2 0 1 0-4.4 0 2.2 2.2 0 0 0 4.4 0m-23.86 0a2.2 2.2 0 1 0-4.4 0 2.2 2.2 0 0 0 4.4 0"
        fill="#fff" />
    <path d="M17.49 2.2a2.2 2.2 0 1 0-4.4 0 2.2 2.2 0 0 0 4.4 0" fill="#fff" />
    <path d="M36.53 4.05h9.66l0.19 1.09H0l0.2-1.09h36.33z" fill="#fff" />
</svg>