<?xml version="1.0" encoding="utf-8" standalone="no"?>
<svg height="60" width="60" xmlns="http://www.w3.org/2000/svg">
    <path d="M 30 0 A 1 1 0 0 0 30 60 A 1 1 0 0 0 30 0 Z" fill="#3BBBD8" />
    <path
        d="M 25.25 12.5 H 26 L 26.75 14.5 H 28.5 L 27.75 12.5 H 32.25 L 31.5 14.5 H 33.25 L 34 12.5 H 34.7186 Q 36 12.5 36.25 13.5 H 38.295 Q 38 10.5 35 10.5 H 25 Q 22 10.5 21.75 13.5 H 23.75 Q 24 12.5 25.25 12.5 Z M 18 41.5 A 2 2 0 0 0 20 43.5 H 40 A 2 2 0 0 0 42 41.5 V 24 S 42 18 38.5 17 Q 30 14.5 21.5 17 C 18 18 18 24 18 24 Z M 23.5 38.5 A 2 2 0 1 1 25.5 36.5 A 2 2 0 0 1 23.5 38.5 Z M 36.5 38.5 A 2 2 0 1 1 38.5 36.5 A 2 2 0 0 1 36.5 38.5 Z M 21.5 28.25 Q 21.5 23.5 22.75 19.25 Q 30 17 37.25 19.25 Q 38.5 23.5 38.5 28.3308 V 32.5 Q 30 34.5 21.5 32.5 Z M 44.5 46.5 H 39 V 44.5 H 36 V 46.5 H 24 V 44.5 H 21 V 46.5 H 15.5 A 1.5 1.5 0 0 0 15.5 49.5 H 44.5 A 1.5 1.5 0 0 0 44.5 46.5 Z"
        fill="#FFFFFF" />
</svg>