<?xml version="1.0" encoding="UTF-8" standalone="no"?>
<svg height="47" width="47" xmlns="http://www.w3.org/2000/svg">
    <path d="M23.5 0a23.5 23.5 0 1 1 0 47 23.5 23.5 0 0 1 0-47" fill="#4896d2"
        fill-rule="evenodd" />
    <path
        d="M39.87 20.75H7.15c-1.05 0-1.9 0.85-1.9 1.9v7.11c0 1.04 0.85 1.89 1.9 1.89h32.72c1.04 0 1.89-0.85 1.89-1.89v-7.12c0-1.04-0.85-1.89-1.9-1.89m-0.27 2.32c0.58 0 1.05 0.47 1.05 1.05v2.24c0 0.58-0.47 1.05-1.05 1.05h-5.55c-0.58 0-1.05-0.47-1.05-1.05v-2.24c0-0.58 0.47-1.05 1.05-1.05h5.55zm-8.9 0c0.58 0 1.05 0.47 1.05 1.05v2.24c0 0.58-0.47 1.05-1.05 1.05h-5.55c-0.58 0-1.05-0.47-1.05-1.05v-2.24c0-0.58 0.47-1.05 1.05-1.05h5.55zm-8.72 0c0.58 0 1.05 0.47 1.05 1.05v2.24c0 0.58-0.47 1.05-1.05 1.05h-5.55c-0.58 0-1.05-0.47-1.05-1.05v-2.24c0-0.58 0.47-1.05 1.05-1.05h5.55zm-8.93 0c0.58 0 1.05 0.47 1.05 1.05v2.24c0 0.58-0.47 1.05-1.05 1.05H7.5c-0.58 0-1.05-0.47-1.05-1.05v-2.24c0-0.58 0.47-1.05 1.05-1.05h5.55zm20.26-6.27a2.2 2.2 0 1 0-4.4 0 2.2 2.2 0 0 0 4.4 0"
        fill="#fff" />
    <path
        d="M37.5 16.81a2.2 2.2 0 1 0-4.4 0 2.2 2.2 0 0 0 4.4 0m-23.86 0a2.2 2.2 0 1 0-4.4 0 2.2 2.2 0 0 0 4.4 0"
        fill="#fff" />
    <path d="M17.79 16.81a2.2 2.2 0 1 0-4.4 0 2.2 2.2 0 0 0 4.4 0" fill="#fff" />
    <path d="M36.83 18.66h9.66l0.19 1.09H0.3l0.2-1.09h36.33z" fill="#fff" />
</svg>