<?xml version="1.0" encoding="UTF-8" standalone="no"?>
<svg height="10.45" width="17.21" xmlns="http://www.w3.org/2000/svg">
    <path
        d="M4.47,4.11h3.25L7.72,0.86L4.47,0.86zM8.71,4.11h3.25L11.96,0.86L8.71,0.86zM12.95,4.11h3.27L16.22,0.86h-3.27zM6.03,8.63c0,1.01 -0.82,1.82 -1.84,1.82 -1.01,0 -1.84,-0.82 -1.84,-1.82 0,-1.03 0.84,-1.84 1.84,-1.84 1.03,0 1.84,0.82 1.84,1.84zM14.79,8.63c0,1.01 -0.82,1.82 -1.84,1.82 -1.01,0 -1.83,-0.82 -1.83,-1.82 0,-1.03 0.82,-1.84 1.83,-1.84 1.02,0 1.84,0.82 1.84,1.84zM17.2,7.36c0,0.42 -0.15,0.57 -0.57,0.57h-1.44c-0.3,-0.95 -1.18,-1.65 -2.24,-1.65 -1.05,0 -1.92,0.7 -2.23,1.65h-4.3c-0.3,-0.95 -1.2,-1.65 -2.24,-1.65s-1.94,0.7 -2.22,1.65L0.42,7.93c-0.29,0 -0.42,-0.15 -0.42,-0.44L0,5.93C0,5.84 0.8,0.42 0.8,0.51 0.84,0.15 0.95,0 1.99,0h14.64c0.42,0 0.57,0.13 0.57,0.57zM3.48,5.09L3.48,0.86L1.92,0.86c-0.11,0 -0.25,0 -0.29,0.27L1.06,5.1h2.41"
        fill="#fff" />
</svg>