<?xml version="1.0" encoding="UTF-8" standalone="no"?>
<svg height="400" width="400" xmlns="http://www.w3.org/2000/svg">
    <path d="M0,0h400v400H0V0z" fill="#2D327D" />
    <g transform="translate(-50, -50), scale(1.25, 1.25)">
        <path
            d="M 316 291.5 a 5 5 0 0 0 5 -5.5 l -4 -30 L 265 256 v 35.5 h 51 z M 195 149 L 80 149 L 80 140 h 94 l -29.5 -20 l 55.5 -31.5 l 55.5 31.5 l -29.5 20 h 61 a 15 15 0 0 1 15 13 l 13.5 93.5 L 80 246.5 L 80 197 L 195 197 a 5 5 0 0 0 0 -10 L 80 187 L 80 178 L 195 178 a 5 5 0 0 0 0 -10 L 80 168 L 80 159 L 195 159 a 5 5 0 0 0 0 -10 z M 262 192 a 5 5 0 0 0 5 5 h 26 a 5 5 0 0 0 5 -6 l -5 -37 a 6 6 0 0 0 -6 -5 L 267 149 a 5 5 0 0 0 -5 5 L 262 192 z M 209 140 l 28.5 -19.5 l -37.5 -21 l -37.5 21 L 191 140 h 18 z M 144 280 a 25.5 25.5 0 0 1 51 0 a 25.5 25.5 0 0 1 -51 0 z M 204 280 a 25.5 25.5 0 0 1 51 0 a 25.5 25.5 0 0 1 -51 0 z M 320 80 v 5 L 80 85 v -5 h 240 z M 80 320 v -9.5 h 240 v 9.5 L 80 320 z L 80 256 h 55 v 35.5 L 80 291.5 L 80 256"
            fill="#FFF" />
    </g>
</svg>