<?xml version="1.0" encoding="UTF-8" standalone="no"?>
<svg height="240" width="240" xmlns="http://www.w3.org/2000/svg">
    <path
        d="M 235 211.5 a 6 6 0 0 0 5 -6.5 l -3 -29 L 185 176 v 35.5 h 50 z M 115 69 L 0 69 L 0 60 h 94 l -29.5 -20 l 55.5 -31.5 l 55.5 31.5 l -29.5 20 h 61 a 15 15 0 0 1 15 13 l 13.5 93.5 L 0 166.5 L 0 117 L 115 117 a 5 5 0 0 0 0 -10 L 0 107 L 0 98 L 115 98 a 5 5 0 0 0 0 -10 L 0 88 L 0 79 L 115 79 a 5 5 0 0 0 0 -10 z M 182 112 a 5 5 0 0 0 5 5 h 26 a 5 5 0 0 0 5 -6 l -5 -37 a 6 6 0 0 0 -6 -5 L 187 69 a 5 5 0 0 0 -5 5 L 182 112 z M 129 60 l 28.5 -19.5 l -37.5 -21 l -37.5 21 L 111 60 h 18 z M 64 200 a 25.5 25.5 0 0 1 51 0 a 25.5 25.5 0 0 1 -51 0 z M 124 200 a 25.5 25.5 0 0 1 51 0 a 25.5 25.5 0 0 1 -51 0 z M 240 0 v 5 L 0 5 v -5 h 240 z M 0 240 v -9.5 h 240 v 9.5 L 0 240 z L 0 176 h 55 v 35.5 L 0 211.5 L 0 176"
        fill="#FFF" />
</svg>