<?xml version="1.0" encoding="UTF-8" standalone="no"?>
<svg height="400" width="400" xmlns="http://www.w3.org/2000/svg">
    <path d="M400,0H0v400h400V0z" fill="#2D327D" />
    <g transform="translate(-50,-50) scale(1.25, 1.25)">
        <path
            d="M 179 96 A 1 1 0 0 1 185.5 89.5 L 237 141 H 278 C 285.5 141 292 146 294 153 L 319.5 235.5 Q 320 237 320 239 L 320 274 A 5 5 0 0 1 315 279 L 80 279 V 220 H 128.5 A 5 5 0 0 0 133.5 215 V 155 A 5 5 0 0 0 128.5 150 H 80 V 141 H 224 L 179 96 Z M 270 235 A 5 5 0 0 0 275 240 H 305 A 5 5 0 0 0 309.5 233.5 L 285 154 A 7.5 7.5 0 0 0 278 149 H 277.5 A 7.5 7.5 0 0 0 270 156.5 L 270 235 Z M 246 233.5 A 7.5 7.5 0 0 0 261 233.5 V 156.5 A 7.5 7.5 0 0 0 246 156.5 V 233.5 Z M 212.5 155 A 5 5 0 0 0 208 150 H 147.5 A 5 5 0 0 0 142.5 155 V 215 A 5 5 0 0 0 147.5 220 H 207.5 A 5 5 0 0 0 212.5 215 V 155 Z M 222 156.5 V 233.5 A 7.5 7.5 0 0 0 237 233.5 V 156.5 A 7 7.5 0 0 0 222 156.5 Z M 205 289 H 255 A 27.5 27.5 0 0 1 205 289 Z M 145 289 H 195 A 27.5 27.5 0 0 1 145 289 Z M 320 311 L 80 311 V 320 H 320 V 311 Z M 320 80 L 80 80 V 85 H 320 V 80 Z"
            fill="#FFF" />
    </g>
</svg>