<?xml version="1.0" encoding="UTF-8" standalone="no"?>
<svg height="180" width="243" xmlns="http://www.w3.org/2000/svg">
    <path
        d="M 10 10 a 5 5 0 0 1 5 5 v 20 a 5 5 0 0 1 -5 5 L 0 40 v 30 h 10 a 5 5 0 0 1 5 5 v 20 a 5 5 0 0 1 -5 5 L 0 100 v 61 c 5 0 10 -0.5 14.84 -1.53 l 33.59 -7.1 c 3.85 -0.5 7.72 -0.8 11.58 -0.88 c 3.86 0 7.73 0.39 11.58 0.88 l 33.6 7.1 a 73.6 73.6 0 0 0 14.82 1.53 c 5 0 9.94 -0.5 14.82 -1.53 l 33.6 -7.1 c 3.83 -0.5 7.75 -0.8 11.5 -0.88 c 3.88 0 7.75 0.39 11.5 0.88 l 21.41 4.52 l 30 -56.9 L 122.5 99.99 l -5 -29.99 L 135 70 v -30 h -61.5 l -5 -30 h 7 a 5 5 0 0 0 0 -10 L 0 0 v 10 h 10 z M 73 95 v -20 a 5 5 0 0 1 5 -5 h 26.14 a 5 5 0 0 1 4.93 4.18 l 3.33 20 c 0 0.27 0 0.5 0 0.82 c 0 2.74 -2.25 5 -5 5 h -29.49 a 5 5 0 0 1 -4.99 -5 z M 24 95 v -20 a 5 5 0 0 1 5 -5 h 30 a 5 5 0 0 1 5 5 v 20 c 0 2.75 -2.24 5 -5 5 h -30 c -2.77 0 -5 -2.25 -5 -5 z M 24 35 v -20 a 5 5 0 0 1 5 -5 h 26.13 a 5 5 0 0 1 5 4.17 l 3.33 20 a 5 5 0 0 1 -5 5.84 L 29 40 c -2.76 0 -5 -2.25 -5 -5 z M 50 161.76 c 3.34 -0.42 6.67 -0.67 10 -0.75 c 3.35 0 6.7 0.33 10 0.75 l 33.23 7 a 82 82 0 0 0 33.54 0 l 33.22 -7 c 3.34 -0.42 6.67 -0.67 10 -0.75 c 3.35 0 6.68 0.33 10 0.75 l 33.23 7 a 81.76 81.76 0 0 0 16.76 1.75 v 9.5 a 92.25 92.25 0 0 1 -18.7 -1.93 l -32.85 -7 a 96.5 96.5 0 0 0 -8.44 -0.63 c -2.82 0 -5.63 0.3 -8.44 0.63 l -32.84 7 a 92.26 92.26 0 0 1 -37.43 0 l -32.85 -7 a 96.2 96.2 0 0 0 -8.44 -0.63 c -2.82 0 -5.63 0.3 -8.45 0.63 l -32.83 7 A 92.5 92.5 0 0 1 0 180 v -9.5 a 82 82 0 0 0 16.78 -1.75 l 33.22 -7 z"
        fill="#FFF" />
</svg>