<?xml version="1.0" encoding="UTF-8" standalone="no"?>
<svg height="400" width="400"
    xmlns="http://www.w3.org/2000/svg">
    <path d="M400,0H0v400h400V0z" fill="#2D327D" />
    <g transform="translate(-50, -50) scale(1.25, 1.25)">
        <path
            d="M 125 150 L 80 150 V 140 H 281 A 18 18 0 0 1 298 153 L 319.5 231.5 Q 320 233.5 320 236 L 320 287 A 8 8 0 0 1 312 295 H 219 A 8 8 0 0 1 211 287 C 211 260 191 240 165 240 C 139 240 119 260 119 287 V 287 A 8 8 0 0 1 111 295 L 80 295 V 220 H 125 A 5 5 0 0 0 130 215 V 155 A 5 5 0 0 0 125 150 Z M 273 235 A 5 5 0 0 0 278 240 H 305 A 5 5 0 0 0 309.5 233.5 L 288.5 155 A 8 8 0 0 0 281 149 H 281 A 8 8 0 0 0 273 157 V 235 Z M 246.5 233 A 8 8 0 0 0 262.5 233 V 157 A 8 8 0 0 0 246.5 157 V 233 Z M 220.5 233 A 8 8 0 0 0 236.5 233 V 157 A 8 8 0 0 0 220.5 157 V 233 Z M 140 215 A 5 5 0 0 0 145 220 H 205.5 A 5 5 0 0 0 210.5 215 V 155 A 5 5 0 0 0 205.5 150 L 145 150 A 5 5 0 0 0 140 155 V 215 Z M 165 251 A 1 1 0 0 1 165 320 A 1 1 0 0 1 165 251 Z M 165 305 A 1 1 0 0 0 165 266 A 1 1 0 0 0 165 305 Z"
            fill="#FFF" />
    </g>
</svg>