<?xml version="1.0" encoding="UTF-8" standalone="no"?>
<svg height="57" width="72" xmlns="http://www.w3.org/2000/svg">
    <path
        d="M56.9,47.9l-21.6,0.8 0.6,3.2 22.7,0.9 -1.7,-4.9M15,38.5L13.8,40l40.9,1.5 -1.6,-4.4L15,38.5M51,26.2l-27.2,1 0.1,0.4 -1.2,1.6 28.1,1 -0.9,-2.6 1.1,-1.4M19.7,32.9l-1.5,1.7 34.5,1.3 -1.4,-4.2 -31.6,1.2M38.5,10.2l-20.6,0.8 0.5,1.3 20.6,0.8 -0.5,-2.9M28.2,49l-22.5,0.8 -0.7,0.9 21.5,0.8 1.7,-2.5M15.9,5.6l0.4,1.1 21.7,0.8 -0.4,-2.7 -21.7,0.8M32.1,43.4l-21.7,0.8 -1,1.1 20.8,0.8 1.9,-2.7M34.3,43.3l0.5,3 21.8,0.8 -1.6,-4.6 -20.7,0.8M69.4,3.1L71.9,0H49.6l-1.5,2.3 21.3,0.8M37.1,1.9L36.7,0H13.9l0.4,1.1 22.8,0.8M1.1,55.5L0,56.7h22.9l1.5,-2.1 -23.3,0.9M36.3,54.2l0.5,2.5H60l-1.2,-3.4 -22.5,0.9M21.8,21.8l0.7,1.8 29.7,1.1 3.3,-4.2 -33.7,1.3M39.6,15.7l-0.1,0.2v-0.2l-19.6,0.7 0.5,1.6 36.1,1.3 3.5,-4.4 -20.4,0.8M43.2,10l-2,3.2 19.6,0.7 3.7,-4.7 -21.3,0.8M46.8,4.4l-2.2,3.4 20.5,0.7L69,3.6l-22.2,0.8"
        fill="" fill-rule="evenodd" />
</svg>