<?xml version="1.0" encoding="UTF-8" standalone="no"?>
<svg height="500" width="500" xmlns="http://www.w3.org/2000/svg">
    <path d="M250,250m-250,0a250,250 0,0 1,500 0a250,250 0,0 1,-500 0" fill="#a3007c" />
    <path
        d="M167,282c0,8,-2,15,-5,21c-2,7,-6,12,-11,16c-6,5,-12,9,-19,11s-16,3,-26,3h-64v-166h57l26,1l16,6c5,3,9,8,12,13s4,11,4,18c0,8,-2,15,-5,22c-4,6,-9,10,-16,14v1c9,2,17,6,22,13c6,7,9,16,9,27m-48,-68l-2,-9l-6,-6l-11,-2h-20v35h21l10,-2c3,-2,5,-4,6,-7l2,-9m9,67c0,-5,-1,-9,-3,-12s-5,-5,-9,-6l-12,-2h-24v41h25c5,0,9,-1,13,-3s6,-4,8,-7l2,-11m194,-8c0,20,-5,36,-16,47s-27,16,-49,16c-21,0,-37,-5,-48,-16s-16,-27,-16,-47v-106h37v103c0,12,2,20,7,26c4,6,11,9,20,9c10,0,17,-3,21,-9c4,-5,6,-14,6,-26v-103h38v106m152,8c0,16,-6,29,-19,40a74,74,0,0,1,-49,15a124,124,0,0,1,-57,-13v-40h4a84,84,0,0,0,54,22l9,-1l9,-2l7,-5c2,-2,3,-5,3,-9c0,-3,-1,-6,-4,-9s-7,-5,-12,-6l-17,-4l-17,-5c-13,-5,-21,-11,-27,-19c-5,-8,-8,-17,-8,-29c0,-15,6,-28,18,-38c13,-9,28,-14,47,-14a125,125,0,0,1,53,11v38h-4a74,74,0,0,0,-57,-18l-9,3l-7,5l-2,8c0,4,1,7,4,10l17,6a2448,2448,0,0,1,31,9c11,4,19,10,25,17c5,7,8,16,8,28"
        fill="#FFF" />
</svg>