<?xml version="1.0" encoding="UTF-8" standalone="no"?>
<svg height="9" width="9" xmlns="http://www.w3.org/2000/svg">
    <path d="M 0 0 L 0 9 L 9 9 L 9 0" fill="#000000" />
    <path
        d="m3.771 5.964c0-0.22-0.18-.4-.4-.4-.22 0-.4.18-.4.4 0 .23.18 .4.4 .4.22 0 .4-.173.4-.4m2.25 0c0-.22-.18-.4-.4-.4-.22 0-.4.18-.4.4 0 .23.18 .4.4 .4.22 0 .4-.173.4-.4m-1.124-1.9c0-.228-.183-.4-.4-.4-.22 0-.4.173-.4.4 0 .22.182 .4.4 .4.22 0 .4-.18.4-.4m-.545-.687 0-1.126-1.375 0-.362 1.126 1.737 0zM6.379 3.38l-.364-1.126-1.375 0 0 1.126 1.739 0zM3.484 7.739l-.34 0 0-.733.34 0 0 .733zM5.849 7.739l-.34 0 0-.733.34 0 0 .733zM6.688 5.971c0 .529-.4.84-.84.84l-2.7 0c-.45 0-.84-.31-.84-.84l0-2.56c0 0 .33-1.315.672-1.655.287-.29.96-.34 1.52-.34.56 0 1.23.053 1.52.34 .34.34 .67 1.625.67 1.625l0 2.59zM8.99 4.5"
        fill="#FFFFFF" />
</svg>