<?xml version="1.0" encoding="UTF-8" standalone="no"?>
<svg height="6.3" width="4.4" xmlns="http://www.w3.org/2000/svg">
    <path
        d="m1.463,4.548c0,-0.22 -0.18,-0.4 -0.4,-0.4c-0.22,0 -0.4,0.18 -0.4,0.4c0,0.23 0.18,0.4 0.4,0.4c0.22,0 0.4,-0.173 0.4,-0.4m2.25,0c0,-0.22 -0.18,-0.4 -0.4,-0.4c-0.22,0 -0.4,0.18 -0.4,0.4c0,0.23 0.18,0.4 0.4,0.4c0.22,0 0.4,-0.173 0.4,-0.4m-1.124,-1.9c0,-0.228 -0.183,-0.4 -0.4,-0.4c-0.22,0 -0.4,0.173 -0.4,0.4c0,0.22 0.182,0.4 0.4,0.4c0.22,0 0.4,-0.18 0.4,-0.4m-0.545,-0.687l0,-1.126l-1.375,0l-0.362,1.126l1.737,0zM4.071,1.964l-0.364,-1.126l-1.375,0l0,1.126l1.739,0zM1.176,6.323l-0.34,0l0,-0.733l0.34,0l0,0.733zM3.541,6.323l-0.34,0l0,-0.733l0.34,0l0,0.733zM4.38,4.555c0,0.529 -0.4,0.84 -0.84,0.84l-2.7,0c-0.45,0 -0.84,-0.31 -0.84,-0.84l0,-2.56c0,0 0.33,-1.315 0.672,-1.655c0.287,-0.29 0.96,-0.34 1.52,-0.34c0.56,0 1.23,0.053 1.52,0.34c0.34,0.34 0.67,1.625 0.67,1.625l0,2.59l-0.002,0zM6.682,3.084"
        fill="" stroke-width="1" />
</svg>