<?xml version="1.0" encoding="UTF-8" standalone="no"?>
<svg height="22.5" width="22.5" xmlns="http://www.w3.org/2000/svg">
    <path d="M0,0h22.5v22.5L0,22.5zM0,0" fill="#F36F21" fill-rule="evenodd" />
    <path
        d="M6.53,13.45h2.6v-2.77h-2.6zM10.09,13.45h2.63v-2.77h-2.62zM10.09,7.34L7.95,5.18 5.79,7.25l2.16,2.14zM13.68,13.45h2.61v-2.77h-2.61zM17.27,16.19h2.6v-5.51h-2.6zM20.83,17.09a0.7,0.7 0,0 1,-0.74 0.74h-0.9c-0.12,0.52 -0.6,0.9 -1.14,0.9a1.2,1.2 0,0 1,-1.16 -0.9c-0.14,0.52 -0.54,0.9 -1.1,0.9a1.2,1.2 0,0 1,-1.18 -1.2c0,-0.16 0.02,-0.3 0.08,-0.44L7.61,17.09a1.1,1.1 0,0 1,0.1 0.44,1.2 1.2,0 0,1 -1.2,1.2c-0.56,0 -1.02,-0.38 -1.16,-0.9 -0.1,0.52 -0.58,0.9 -1.12,0.9 -0.56,0 -1.04,-0.38 -1.16,-0.9h-0.94c-0.3,0 -0.48,-0.3 -0.44,-0.6l0.74,-6.55c0.1,-0.9 0.42,-1.2 1.34,-1.2L6.45,9.48L4.36,7.25 7.95,3.76l3.56,3.59 -2.08,2.14h10.05c0.74,0 1.34,0.46 1.34,1.2zM5.55,16.94v-6.26L3.6,10.68l-0.6,5.51L5.55,16.19"
        fill="#FFFFFF" fill-rule="evenodd" />
</svg>